<?xml version="1.0" encoding="UTF-8" standalone="no"?><!DOCTYPE svg PUBLIC "-//W3C//DTD SVG 1.1//EN" "http://www.w3.org/Graphics/SVG/1.1/DTD/svg11.dtd"><svg width="100%" height="100%" viewBox="0 0 1990 694" version="1.1" xmlns="http://www.w3.org/2000/svg" xmlns:xlink="http://www.w3.org/1999/xlink" xml:space="preserve" xmlns:serif="http://www.serif.com/" style="fill-rule:evenodd;clip-rule:evenodd;stroke-linecap:round;stroke-linejoin:round;stroke-miterlimit:1.5;"><path d="M42,366l136,-108l239,-45l167,242l242,180l137,-116.984l8,-260.016l157,-127l198,238l234,145l195,-30.984l182,-185.016" style="fill:none;stroke:#d02900;stroke-width:12.5px;"/><path d="M42,366l355.855,-19.64l482.145,126.266l251,-259.626l481.935,133.541l324.065,-48.541" style="fill:none;stroke:#0035f5;stroke-width:10.42px;"/><path d="M195.076,332.44l-10.95,25.716l-14.003,-24.19c6.62,5.857 19.097,5.094 24.953,-1.526Z" style="fill:#d02900;"/><path d="M178,258c0,0 3.118,50.976 4.905,80.193" style="fill:none;stroke:#d02900;stroke-width:4.17px;"/><path d="M413.781,323.39l-15.926,22.97l-8.82,-26.522c5.298,7.075 17.671,8.851 24.746,3.552Z" style="fill:#d02900;"/><path d="M417,213c0,0 -10.971,76.422 -16.303,113.563" style="fill:none;stroke:#d02900;stroke-width:4.17px;"/><path d="M579.829,420.069l18.077,-21.318l6.209,27.252c-4.588,-7.555 -16.731,-10.522 -24.286,-5.934Z" style="fill:#d02900;"/><path d="M584.005,455.638c0,0 5.127,-20.981 9.154,-37.459" style="fill:none;stroke:#d02900;stroke-width:4.17px;"/><path d="M845.564,489.907l17.643,-21.678l6.757,27.122c-4.739,-7.461 -16.939,-10.183 -24.4,-5.444Z" style="fill:#d02900;"/><path d="M826,635c0,0 23.03,-103.223 32.852,-147.251" style="fill:none;stroke:#d02900;stroke-width:4.17px;"/><path d="M907.224,480.177l-8.912,-26.492l26.541,8.766c-8.839,0.024 -17.653,8.887 -17.629,17.726Z" style="fill:#d02900;"/><path d="M963,518.016c0,-0 -31.466,-31.293 -50.507,-50.228" style="fill:none;stroke:#d02900;stroke-width:4.17px;"/><path d="M1020.18,292.706l7.817,26.835l-26.159,-9.848c8.833,0.339 18.003,-8.155 18.342,-16.987Z" style="fill:#d02900;"/><path d="M971,258c0,0 26.549,28.665 43.409,46.868" style="fill:none;stroke:#d02900;stroke-width:4.17px;"/><path d="M1142.58,187.56l-11.578,25.44l-13.406,-24.526c6.475,6.017 18.966,5.56 24.984,-0.914Z" style="fill:#d02900;"/><path d="M1128,131c0,0 1.381,37.74 2.269,62.013" style="fill:none;stroke:#d02900;stroke-width:4.17px;"/><path d="M1331.64,300.532l18.614,-20.852l5.513,27.402c-4.394,-7.669 -16.458,-10.945 -24.127,-6.55Z" style="fill:#d02900;"/><path d="M1326,369c0,0 11.88,-43.758 19.01,-70.019" style="fill:none;stroke:#d02900;stroke-width:4.17px;"/><path d="M1581.68,364.365l17.799,-21.552l6.562,27.17c-4.686,-7.495 -16.866,-10.304 -24.361,-5.618Z" style="fill:#d02900;"/><path d="M1560,514c0,0 24.636,-106.82 34.986,-151.698" style="fill:none;stroke:#d02900;stroke-width:4.17px;"/><path d="M1721.11,355.822l8.217,-26.716l16.442,22.603c-7.193,-5.136 -19.522,-3.08 -24.659,4.113Z" style="fill:#d02900;"/><path d="M1755,483.016c0,-0 -15.452,-92.652 -22.379,-134.182" style="fill:none;stroke:#d02900;stroke-width:4.17px;"/><path d="M445.597,298.407l27.685,-3.849l-13.531,24.457c1.613,-8.69 -5.463,-18.994 -14.154,-20.608Z" style="fill:#0035f5;"/><path d="M397.855,346.36c0,0 36.744,-25.235 58.941,-40.479" style="fill:none;stroke:#0035f5;stroke-width:4.17px;"/><path d="M932.787,510.129l8.132,26.742l-26.273,-9.54c8.836,0.235 17.906,-8.366 18.141,-17.202Z" style="fill:#0035f5;"/><path d="M880,472.626c0,0 29.189,30.783 47.157,49.732" style="fill:none;stroke:#0035f5;stroke-width:4.17px;"/><path d="M1143.78,187.928l27.522,-4.881l-12.608,24.946c1.287,-8.745 -6.169,-18.777 -14.914,-20.065Z" style="fill:#0035f5;"/><path d="M1131,213c0,0 13.012,-9.671 24.248,-18.022" style="fill:none;stroke:#0035f5;stroke-width:4.17px;"/><path d="M1644.42,475.554l-8.999,26.462l-15.77,-23.076c7.038,5.345 19.423,3.652 24.769,-3.386Z" style="fill:#0035f5;"/><path d="M1614.14,346.36c-0,0 12.837,93.905 18.57,135.84" style="fill:none;stroke:#0035f5;stroke-width:4.17px;"/><path d="M402.542,183.047l-33.75,0l0.9,-4.35c3.9,-1.6 7.8,-2.8 11.7,-3.6l59.25,-98.85l3.9,0l16.95,98.85c1.8,0.4 3.625,0.875 5.475,1.425c1.85,0.55 3.525,1.275 5.025,2.175l-0.75,4.35l-38.1,0l0.75,-4.35c4.5,-1.7 8.9,-2.9 13.2,-3.6l-4.5,-27.45l-35.25,0l-16.05,27.45c4.3,0.6 8.3,1.8 12,3.6l-0.75,4.35Zm9.15,-43.2l29.7,0l-4.8,-31.8l-0.3,-12.9l-0.3,0l-6,13.2l-18.3,31.5Z" style="fill:#d02900;fill-rule:nonzero;"/><path d="M117.511,438.922c1.2,-0 2.4,-0.567 3.6,-1.7c1.2,-1.134 2.333,-2.5 3.4,-4.1c1.066,-1.6 2.022,-3.267 2.866,-5c0.845,-1.734 1.511,-3.178 2,-4.334l2.134,-11.4c-0.667,-0.444 -1.278,-0.744 -1.834,-0.9c-0.555,-0.155 -1.344,-0.255 -2.366,-0.3c-2.134,0.045 -4.045,0.7 -5.734,1.967c-1.689,1.267 -3.111,2.889 -4.266,4.867c-1.156,1.977 -2.034,4.188 -2.634,6.633c-0.6,2.444 -0.9,4.844 -0.9,7.2c0,2.267 0.278,4.011 0.834,5.233c0.555,1.222 1.522,1.834 2.9,1.834Zm10.533,-9.734c-0.578,1.6 -1.311,3.222 -2.2,4.867c-0.889,1.644 -1.9,3.133 -3.033,4.467c-1.134,1.333 -2.378,2.422 -3.734,3.266c-1.355,0.845 -2.811,1.267 -4.366,1.267c-4.623,-0 -6.934,-3.378 -6.934,-10.133c0,-3.156 0.445,-6.212 1.334,-9.167c0.888,-2.956 2.177,-5.578 3.866,-7.867c1.689,-2.289 3.734,-4.122 6.134,-5.5c2.4,-1.378 5.133,-2.066 8.2,-2.066c1.155,-0 2.022,0.077 2.6,0.233c0.577,0.155 1.311,0.433 2.2,0.833l2.533,-12.6l-4.667,-0.6l0,-1.666c0.667,-0.267 1.4,-0.523 2.2,-0.767c0.8,-0.245 1.634,-0.467 2.5,-0.667c0.867,-0.2 1.745,-0.389 2.634,-0.566c0.888,-0.178 1.711,-0.312 2.466,-0.4l1.4,0.533l-9.133,45.933l4.867,0l-0,1.667c-0.889,0.711 -1.956,1.289 -3.2,1.733c-1.245,0.445 -2.467,0.667 -3.667,0.667c-1.289,-0 -2.211,-0.278 -2.767,-0.833c-0.555,-0.556 -0.833,-1.145 -0.833,-1.767c-0,-0.8 0.155,-2.111 0.467,-3.933c0.311,-1.823 0.777,-4.134 1.4,-6.934l-0.267,0Z" style="fill:#d02900;fill-rule:nonzero;"/><path d="M155.111,456.255c-3.823,-3.289 -6.545,-6.722 -8.167,-10.3c-1.622,-3.578 -2.433,-7.411 -2.433,-11.5c-0,-4.978 0.744,-9.489 2.233,-13.533c1.489,-4.045 3.378,-7.667 5.667,-10.867c2.288,-3.2 4.833,-6.011 7.633,-8.433c2.8,-2.423 5.533,-4.478 8.2,-6.167l1.133,1.2c-2.178,1.867 -4.4,4.067 -6.666,6.6c-2.267,2.533 -4.334,5.344 -6.2,8.433c-1.867,3.089 -3.389,6.478 -4.567,10.167c-1.178,3.689 -1.745,7.622 -1.7,11.8c-0.045,4 0.422,7.744 1.4,11.233c0.978,3.489 2.778,6.834 5.4,10.034l-1.933,1.333Z" style="fill:#d02900;fill-rule:nonzero;"/><path d="M173.844,438.922c1.2,-0 2.4,-0.567 3.6,-1.7c1.2,-1.134 2.333,-2.5 3.4,-4.1c1.067,-1.6 2.022,-3.267 2.867,-5c0.844,-1.734 1.511,-3.178 2,-4.334l2.133,-11.4c-0.622,-0.444 -1.222,-0.755 -1.8,-0.933c-0.578,-0.178 -1.378,-0.267 -2.4,-0.267c-2.045,0 -3.9,0.634 -5.567,1.9c-1.666,1.267 -3.089,2.9 -4.266,4.9c-1.178,2 -2.089,4.222 -2.734,6.667c-0.644,2.444 -0.966,4.844 -0.966,7.2c-0,2.267 0.277,4.011 0.833,5.233c0.555,1.222 1.522,1.834 2.9,1.834Zm10.533,-9.734c-0.578,1.6 -1.3,3.222 -2.166,4.867c-0.867,1.644 -1.867,3.133 -3,4.467c-1.134,1.333 -2.389,2.422 -3.767,3.266c-1.378,0.845 -2.845,1.267 -4.4,1.267c-4.622,-0 -6.933,-3.356 -6.933,-10.067c-0,-3.111 0.444,-6.144 1.333,-9.1c0.889,-2.955 2.178,-5.589 3.867,-7.9c1.688,-2.311 3.744,-4.166 6.166,-5.566c2.422,-1.4 5.167,-2.1 8.234,-2.1c1.111,-0 2,0.1 2.666,0.3c0.667,0.2 1.467,0.5 2.4,0.9c1.778,-0.934 3.645,-1.4 5.6,-1.4l-6,30.466l4.867,0l-0,1.667c-0.889,0.711 -1.956,1.289 -3.2,1.733c-1.245,0.445 -2.467,0.667 -3.667,0.667c-1.289,-0 -2.211,-0.278 -2.766,-0.833c-0.556,-0.556 -0.834,-1.145 -0.834,-1.767c0,-0.8 0.156,-2.111 0.467,-3.933c0.311,-1.823 0.778,-4.134 1.4,-6.934l-0.267,0Z" style="fill:#d02900;fill-rule:nonzero;"/><path d="M194.511,452.188c0.933,-0.311 1.844,-0.789 2.733,-1.433c0.889,-0.645 1.7,-1.367 2.433,-2.167c0.734,-0.8 1.334,-1.678 1.8,-2.633c0.467,-0.956 0.767,-1.9 0.9,-2.833c-0.444,-0.489 -1.055,-0.978 -1.833,-1.467c-0.778,-0.489 -1.478,-0.845 -2.1,-1.067c-0.045,-0.844 0.111,-1.666 0.467,-2.466c0.355,-0.8 0.8,-1.512 1.333,-2.134c0.533,-0.622 1.1,-1.122 1.7,-1.5c0.6,-0.378 1.144,-0.589 1.633,-0.633c1.511,0.222 2.645,0.755 3.4,1.6c0.756,0.844 1.134,2.111 1.134,3.8c-0,1.689 -0.367,3.333 -1.1,4.933c-0.734,1.6 -1.689,3.067 -2.867,4.4c-1.178,1.334 -2.533,2.489 -4.067,3.467c-1.533,0.978 -3.1,1.689 -4.7,2.133l-0.866,-2Z" style="fill:#d02900;fill-rule:nonzero;"/><path d="M227.977,442.255l0.334,-1.933c2,-0.845 3.955,-1.378 5.866,-1.6l8.334,-39.534c-0.889,-0.178 -1.756,-0.411 -2.6,-0.7c-0.845,-0.289 -1.689,-0.611 -2.534,-0.966l0.467,-1.934l7.067,0c1.644,0 3.288,-0.066 4.933,-0.2c1.644,-0.133 3.711,-0.2 6.2,-0.2c1.778,0 3.467,0.156 5.067,0.467c1.6,0.311 3,0.8 4.2,1.467c1.2,0.666 2.155,1.544 2.866,2.633c0.711,1.089 1.067,2.433 1.067,4.033c-0,1.556 -0.233,3.034 -0.7,4.434c-0.467,1.4 -1.189,2.688 -2.167,3.866c-0.978,1.178 -2.211,2.211 -3.7,3.1c-1.489,0.889 -3.233,1.6 -5.233,2.134l-0,0.266c1.022,0.089 2.067,0.311 3.133,0.667c1.067,0.355 2.034,0.878 2.9,1.567c0.867,0.688 1.567,1.555 2.1,2.6c0.534,1.044 0.8,2.277 0.8,3.7c0,2.355 -0.444,4.533 -1.333,6.533c-0.889,2 -2.211,3.744 -3.967,5.233c-1.755,1.489 -3.966,2.656 -6.633,3.5c-2.667,0.845 -5.778,1.267 -9.333,1.267c-1.556,-0 -3.278,-0.067 -5.167,-0.2c-1.889,-0.133 -3.745,-0.2 -5.567,-0.2l-6.4,-0Zm18.4,-3.067c1.822,0.045 3.556,-0.2 5.2,-0.733c1.645,-0.533 3.089,-1.311 4.334,-2.333c1.244,-1.023 2.233,-2.278 2.966,-3.767c0.734,-1.489 1.1,-3.189 1.1,-5.1c0,-1.467 -0.255,-2.667 -0.766,-3.6c-0.512,-0.933 -1.245,-1.645 -2.2,-2.133c-0.956,-0.489 -2.1,-0.823 -3.434,-1c-1.333,-0.178 -2.822,-0.267 -4.466,-0.267l-5.067,-0l-3.867,18.4c0.578,0.178 1.289,0.322 2.134,0.433c0.844,0.111 2.2,0.145 4.066,0.1Zm1.734,-22.4c0.755,0 1.655,-0.033 2.7,-0.1c1.044,-0.066 1.944,-0.144 2.7,-0.233c3.511,-1.245 5.944,-2.922 7.3,-5.033c1.355,-2.112 2.033,-4.412 2.033,-6.9c-0,-1.734 -0.622,-3.145 -1.867,-4.234c-1.244,-1.089 -3.333,-1.633 -6.266,-1.633c-1.423,-0 -2.634,0.033 -3.634,0.1c-1,0.067 -1.833,0.144 -2.5,0.233l-3.8,17.8l3.334,0Z" style="fill:#d02900;fill-rule:nonzero;"/><path d="M264.311,454.922c1.955,-1.6 4.055,-3.645 6.3,-6.134c2.244,-2.489 4.311,-5.344 6.2,-8.566c1.888,-3.223 3.466,-6.789 4.733,-10.7c1.267,-3.912 1.9,-8.089 1.9,-12.534c-0,-1.911 -0.1,-3.689 -0.3,-5.333c-0.2,-1.645 -0.556,-3.267 -1.067,-4.867c-0.511,-1.6 -1.211,-3.222 -2.1,-4.866c-0.889,-1.645 -2.022,-3.4 -3.4,-5.267l1.734,-1.2c3.822,3.467 6.566,6.989 8.233,10.567c1.667,3.577 2.5,7.455 2.5,11.633c-0,4.622 -0.689,8.922 -2.067,12.9c-1.378,3.978 -3.178,7.589 -5.4,10.833c-2.222,3.245 -4.722,6.122 -7.5,8.634c-2.778,2.511 -5.589,4.588 -8.433,6.233l-1.333,-1.333Z" style="fill:#d02900;fill-rule:nonzero;"/><path d="M1573.89,578.981c1.2,0 2.4,-0.567 3.6,-1.7c1.2,-1.133 2.334,-2.5 3.4,-4.1c1.067,-1.6 2.022,-3.267 2.867,-5c0.844,-1.733 1.511,-3.178 2,-4.333l2.133,-11.4c-0.666,-0.445 -1.278,-0.745 -1.833,-0.9c-0.556,-0.156 -1.345,-0.256 -2.367,-0.3c-2.133,0.044 -4.044,0.7 -5.733,1.966c-1.689,1.267 -3.111,2.889 -4.267,4.867c-1.155,1.978 -2.033,4.189 -2.633,6.633c-0.6,2.445 -0.9,4.845 -0.9,7.2c-0,2.267 0.278,4.012 0.833,5.234c0.556,1.222 1.522,1.833 2.9,1.833Zm10.534,-9.733c-0.578,1.6 -1.312,3.222 -2.2,4.866c-0.889,1.645 -1.9,3.134 -3.034,4.467c-1.133,1.333 -2.378,2.422 -3.733,3.267c-1.356,0.844 -2.811,1.266 -4.367,1.266c-4.622,0 -6.933,-3.377 -6.933,-10.133c-0,-3.155 0.444,-6.211 1.333,-9.167c0.889,-2.955 2.178,-5.577 3.867,-7.866c1.689,-2.289 3.733,-4.122 6.133,-5.5c2.4,-1.378 5.134,-2.067 8.2,-2.067c1.156,0 2.022,0.078 2.6,0.233c0.578,0.156 1.311,0.434 2.2,0.834l2.534,-12.6l-4.667,-0.6l-0,-1.667c0.667,-0.267 1.4,-0.522 2.2,-0.767c0.8,-0.244 1.633,-0.466 2.5,-0.666c0.867,-0.2 1.744,-0.389 2.633,-0.567c0.889,-0.178 1.711,-0.311 2.467,-0.4l1.4,0.533l-9.133,45.934l4.866,-0l0,1.666c-0.889,0.712 -1.955,1.289 -3.2,1.734c-1.244,0.444 -2.466,0.666 -3.666,0.666c-1.289,0 -2.212,-0.277 -2.767,-0.833c-0.556,-0.555 -0.833,-1.144 -0.833,-1.767c-0,-0.8 0.155,-2.111 0.466,-3.933c0.311,-1.822 0.778,-4.133 1.4,-6.933l-0.266,-0Z" style="fill:#0035f5;fill-rule:nonzero;"/><path d="M1611.49,596.314c-3.822,-3.288 -6.544,-6.722 -8.166,-10.3c-1.623,-3.577 -2.434,-7.411 -2.434,-11.5c0,-4.977 0.745,-9.488 2.234,-13.533c1.488,-4.044 3.377,-7.667 5.666,-10.867c2.289,-3.2 4.834,-6.011 7.634,-8.433c2.8,-2.422 5.533,-4.478 8.2,-6.167l1.133,1.2c-2.178,1.867 -4.4,4.067 -6.667,6.6c-2.266,2.534 -4.333,5.345 -6.2,8.434c-1.866,3.089 -3.389,6.478 -4.566,10.166c-1.178,3.689 -1.745,7.623 -1.7,11.8c-0.045,4 0.422,7.745 1.4,11.234c0.977,3.489 2.777,6.833 5.4,10.033l-1.934,1.333Z" style="fill:#0035f5;fill-rule:nonzero;"/><path d="M1630.62,536.848l-4.667,-0.6l-0,-1.534c0.711,-0.266 1.489,-0.533 2.333,-0.8c0.845,-0.266 1.7,-0.522 2.567,-0.766c0.867,-0.245 1.722,-0.445 2.567,-0.6c0.844,-0.156 1.622,-0.278 2.333,-0.367l1.4,0.733l-5.867,27.8l0.334,0c0.8,-1.6 1.677,-3.155 2.633,-4.666c0.955,-1.511 1.978,-2.845 3.067,-4c1.088,-1.156 2.233,-2.089 3.433,-2.8c1.2,-0.711 2.467,-1.067 3.8,-1.067c2.355,0 4.222,0.822 5.6,2.467c1.378,1.644 2.067,4.2 2.067,7.666c-0,3.423 -0.478,6.634 -1.434,9.634c-0.955,3 -2.3,5.622 -4.033,7.866c-1.733,2.245 -3.822,4.023 -6.267,5.334c-2.444,1.311 -5.155,1.966 -8.133,1.966c-2.178,0 -4.211,-0.277 -6.1,-0.833c-1.889,-0.555 -3.278,-1.211 -4.167,-1.967l8.534,-43.466Zm11.133,15.466c-1.156,0 -2.289,0.512 -3.4,1.534c-1.111,1.022 -2.145,2.255 -3.1,3.7c-0.956,1.444 -1.822,2.955 -2.6,4.533c-0.778,1.578 -1.433,2.9 -1.967,3.967l-2.533,12.8c0.667,0.444 1.5,0.789 2.5,1.033c1,0.245 1.989,0.367 2.967,0.367c1.733,-0 3.366,-0.6 4.9,-1.8c1.533,-1.2 2.877,-2.778 4.033,-4.734c1.155,-1.955 2.067,-4.166 2.733,-6.633c0.667,-2.467 0.978,-4.967 0.934,-7.5c0.044,-2.133 -0.289,-3.878 -1,-5.233c-0.712,-1.356 -1.867,-2.034 -3.467,-2.034Z" style="fill:#0035f5;fill-rule:nonzero;"/><path d="M1652.36,592.248c0.933,-0.311 1.844,-0.789 2.733,-1.434c0.889,-0.644 1.7,-1.366 2.434,-2.166c0.733,-0.8 1.333,-1.678 1.8,-2.634c0.466,-0.955 0.766,-1.9 0.9,-2.833c-0.445,-0.489 -1.056,-0.978 -1.834,-1.467c-0.778,-0.488 -1.478,-0.844 -2.1,-1.066c-0.044,-0.845 0.111,-1.667 0.467,-2.467c0.355,-0.8 0.8,-1.511 1.333,-2.133c0.534,-0.622 1.1,-1.122 1.7,-1.5c0.6,-0.378 1.145,-0.589 1.634,-0.634c1.511,0.223 2.644,0.756 3.4,1.6c0.755,0.845 1.133,2.112 1.133,3.8c-0,1.689 -0.367,3.334 -1.1,4.934c-0.733,1.6 -1.689,3.066 -2.867,4.4c-1.178,1.333 -2.533,2.489 -4.066,3.466c-1.534,0.978 -3.1,1.689 -4.7,2.134l-0.867,-2Z" style="fill:#0035f5;fill-rule:nonzero;"/><path d="M1698.89,582.314l-15,0l0.4,-1.933c1.734,-0.711 3.467,-1.244 5.2,-1.6l26.334,-43.933l1.733,-0l7.533,43.933c0.8,0.178 1.611,0.389 2.434,0.633c0.822,0.245 1.566,0.567 2.233,0.967l-0.333,1.933l-16.934,0l0.334,-1.933c2,-0.755 3.955,-1.289 5.866,-1.6l-2,-12.2l-15.666,0l-7.134,12.2c1.911,0.267 3.689,0.8 5.334,1.6l-0.334,1.933Zm4.067,-19.2l13.2,0l-2.133,-14.133l-0.134,-5.733l-0.133,-0l-2.667,5.866l-8.133,14Z" style="fill:#0035f5;fill-rule:nonzero;"/><path d="M1726.76,594.981c1.955,-1.6 4.055,-3.644 6.3,-6.133c2.244,-2.489 4.311,-5.345 6.2,-8.567c1.889,-3.222 3.467,-6.789 4.733,-10.7c1.267,-3.911 1.9,-8.089 1.9,-12.533c0,-1.911 -0.1,-3.689 -0.3,-5.334c-0.2,-1.644 -0.555,-3.266 -1.066,-4.866c-0.512,-1.6 -1.212,-3.222 -2.1,-4.867c-0.889,-1.644 -2.023,-3.4 -3.4,-5.267l1.733,-1.2c3.822,3.467 6.567,6.989 8.233,10.567c1.667,3.578 2.5,7.456 2.5,11.633c0,4.623 -0.689,8.923 -2.066,12.9c-1.378,3.978 -3.178,7.589 -5.4,10.834c-2.223,3.244 -4.723,6.122 -7.5,8.633c-2.778,2.511 -5.589,4.589 -8.434,6.233l-1.333,-1.333Z" style="fill:#0035f5;fill-rule:nonzero;"/><path d="M1413.4,263.208l0.75,-4.35c4.5,-1.9 8.9,-3.1 13.2,-3.6l18.75,-88.95c-2,-0.4 -3.95,-0.925 -5.85,-1.575c-1.9,-0.65 -3.8,-1.375 -5.7,-2.175l1.05,-4.35l15.9,-0c3.7,-0 7.4,-0.15 11.1,-0.45c3.7,-0.3 8.35,-0.45 13.95,-0.45c4,-0 7.8,0.35 11.4,1.05c3.6,0.7 6.75,1.8 9.45,3.3c2.7,1.5 4.85,3.475 6.45,5.925c1.6,2.45 2.4,5.475 2.4,9.075c-0,3.5 -0.525,6.825 -1.575,9.975c-1.05,3.15 -2.675,6.05 -4.875,8.7c-2.2,2.65 -4.975,4.975 -8.325,6.975c-3.35,2 -7.275,3.6 -11.775,4.8l-0,0.6c2.3,0.2 4.65,0.7 7.05,1.5c2.4,0.8 4.575,1.975 6.525,3.525c1.95,1.55 3.525,3.5 4.725,5.85c1.2,2.35 1.8,5.125 1.8,8.325c-0,5.3 -1,10.2 -3,14.7c-2,4.5 -4.975,8.425 -8.925,11.775c-3.95,3.35 -8.925,5.975 -14.925,7.875c-6,1.9 -13,2.85 -21,2.85c-3.5,-0 -7.375,-0.15 -11.625,-0.45c-4.25,-0.3 -8.425,-0.45 -12.525,-0.45l-14.4,-0Zm41.4,-6.9c4.1,0.1 8,-0.45 11.7,-1.65c3.7,-1.2 6.95,-2.95 9.75,-5.25c2.8,-2.3 5.025,-5.125 6.675,-8.475c1.65,-3.35 2.475,-7.175 2.475,-11.475c-0,-3.3 -0.575,-6 -1.725,-8.1c-1.15,-2.1 -2.8,-3.7 -4.95,-4.8c-2.15,-1.1 -4.725,-1.85 -7.725,-2.25c-3,-0.4 -6.35,-0.6 -10.05,-0.6l-11.4,-0l-8.7,41.4c1.3,0.4 2.9,0.725 4.8,0.975c1.9,0.25 4.95,0.325 9.15,0.225Zm3.9,-50.4c1.7,-0 3.725,-0.075 6.075,-0.225c2.35,-0.15 4.375,-0.325 6.075,-0.525c7.9,-2.8 13.375,-6.575 16.425,-11.325c3.05,-4.75 4.575,-9.925 4.575,-15.525c-0,-3.9 -1.4,-7.075 -4.2,-9.525c-2.8,-2.45 -7.5,-3.675 -14.1,-3.675c-3.2,-0 -5.925,0.075 -8.175,0.225c-2.25,0.15 -4.125,0.325 -5.625,0.525l-8.55,40.05l7.5,-0Z" style="fill:#0035f5;fill-rule:nonzero;"/></svg>