<?xml version="1.0" encoding="UTF-8" standalone="no"?><!DOCTYPE svg PUBLIC "-//W3C//DTD SVG 1.1//EN" "http://www.w3.org/Graphics/SVG/1.1/DTD/svg11.dtd"><svg width="100%" height="100%" viewBox="0 0 1602 543" version="1.1" xmlns="http://www.w3.org/2000/svg" xmlns:xlink="http://www.w3.org/1999/xlink" xml:space="preserve" xmlns:serif="http://www.serif.com/" style="fill-rule:evenodd;clip-rule:evenodd;stroke-linecap:round;stroke-linejoin:round;stroke-miterlimit:1.5;"><rect id="Artboard1" x="0" y="0" width="1602" height="543" style="fill:none;"/><g id="Artboard11" serif:id="Artboard1"><circle cx="60.872" cy="154.374" r="24.605"/><circle cx="639.879" cy="154.374" r="24.605" style="fill:#c5c5c5;"/><circle cx="1222.28" cy="154.374" r="24.605" style="fill:#c5c5c5;"/><circle cx="102.848" cy="192.031" r="13.465"/><circle cx="681.855" cy="192.031" r="13.465" style="fill:#c5c5c5;"/><circle cx="1264.26" cy="192.031" r="13.465" style="fill:#c5c5c5;"/><circle cx="122.55" cy="162.23" r="17.771"/><circle cx="701.558" cy="162.23" r="17.771" style="fill:#c5c5c5;"/><circle cx="1283.96" cy="162.23" r="17.771" style="fill:#c5c5c5;"/><circle cx="103.883" cy="304.716" r="15.936"/><circle cx="682.89" cy="304.716" r="15.936" style="fill:#c5c5c5;"/><circle cx="1265.29" cy="304.716" r="15.936" style="fill:#c5c5c5;"/><circle cx="358.317" cy="327.177" r="15.936"/><circle cx="937.324" cy="327.177" r="15.936" style="fill:#f00;stroke:#000;stroke-width:4px;"/><circle cx="1519.73" cy="327.177" r="15.936" style="fill:#c5c5c5;stroke:#c5c5c5;stroke-width:4px;"/><circle cx="331.892" cy="479.832" r="11.63"/><circle cx="910.899" cy="479.832" r="11.63" style="fill:#c5c5c5;"/><circle cx="1493.3" cy="479.832" r="11.63" style="fill:#c5c5c5;"/><circle cx="283.86" cy="501.658" r="10.195"/><circle cx="862.867" cy="501.658" r="10.195" style="fill:#c5c5c5;"/><circle cx="1445.27" cy="501.658" r="10.195" style="fill:#c5c5c5;"/><circle cx="214.03" cy="221.974" r="15.936"/><circle cx="793.037" cy="221.974" r="15.936" style="fill:#c5c5c5;"/><circle cx="1375.44" cy="221.974" r="15.936" style="fill:#c5c5c5;"/><circle cx="251.213" cy="354.743" r="11.63"/><circle cx="830.22" cy="354.743" r="11.63" style="fill:#c5c5c5;"/><circle cx="1412.62" cy="354.743" r="11.63" style="fill:#c5c5c5;"/><circle cx="182.404" cy="453.926" r="11.63"/><circle cx="761.411" cy="453.926" r="11.63" style="fill:#f00;stroke:#000;stroke-width:4px;"/><circle cx="1343.81" cy="453.926" r="11.63" style="fill:#c5c5c5;stroke:#c5c5c5;stroke-width:4px;"/><circle cx="295.491" cy="106.403" r="11.63"/><circle cx="874.498" cy="106.403" r="11.63" style="fill:#c5c5c5;"/><circle cx="1456.9" cy="106.403" r="11.63" style="fill:#c5c5c5;"/><circle cx="265.579" cy="152.415" r="15.936"/><circle cx="844.586" cy="152.415" r="15.936" style="fill:#c5c5c5;"/><circle cx="1426.99" cy="152.415" r="15.936" style="fill:#c5c5c5;"/><circle cx="286.369" cy="332.093" r="15.936"/><circle cx="865.376" cy="332.093" r="15.936" style="fill:#c5c5c5;"/><circle cx="1447.78" cy="332.093" r="15.936" style="fill:#c5c5c5;"/><circle cx="154.81" cy="311.241" r="11.63"/><circle cx="730.833" cy="316.017" r="11.63" style="fill:#c5c5c5;"/><circle cx="1313.24" cy="316.017" r="11.63" style="fill:#c5c5c5;"/><circle cx="186.18" cy="363.08" r="19.968"/><circle cx="765.187" cy="363.08" r="19.968" style="fill:#c5c5c5;"/><circle cx="1347.59" cy="363.08" r="19.968" style="fill:#c5c5c5;"/><circle cx="193.089" cy="251.848" r="7.441"/><circle cx="757.746" cy="251.848" r="7.441" style="fill:#c5c5c5;"/><circle cx="1340.15" cy="251.848" r="7.441" style="fill:#c5c5c5;"/><circle cx="41.567" cy="222.868" r="15.936"/><circle cx="620.574" cy="222.868" r="15.936" style="fill:#c5c5c5;"/><circle cx="1202.98" cy="222.868" r="15.936" style="fill:#c5c5c5;"/><circle cx="129.211" cy="357.081" r="13.969"/><circle cx="709.653" cy="357.081" r="13.969" style="fill:#c5c5c5;"/><circle cx="1292.06" cy="357.081" r="13.969" style="fill:#c5c5c5;"/><circle cx="82.4" cy="373.017" r="15.936"/><circle cx="659.972" cy="371.05" r="15.936" style="fill:#c5c5c5;"/><circle cx="1242.38" cy="371.05" r="15.936" style="fill:#c5c5c5;"/><circle cx="76.717" cy="320.651" r="8.76"/><circle cx="655.724" cy="320.651" r="8.76" style="fill:#c5c5c5;"/><circle cx="1238.13" cy="320.651" r="8.76" style="fill:#c5c5c5;"/><circle cx="376.259" cy="239.389" r="15.936"/><circle cx="955.266" cy="239.389" r="15.936" style="fill:#c5c5c5;"/><circle cx="1537.67" cy="239.389" r="15.936" style="fill:#c5c5c5;"/><circle cx="292.774" cy="442.296" r="27.195"/><circle cx="871.781" cy="442.296" r="27.195" style="fill:#c5c5c5;"/><circle cx="1454.18" cy="442.296" r="27.195" style="fill:#c5c5c5;"/><circle cx="337.411" cy="419.406" r="17.15"/><circle cx="916.418" cy="419.406" r="17.15" style="fill:#c5c5c5;"/><circle cx="1498.82" cy="419.406" r="17.15" style="fill:#c5c5c5;"/><circle cx="222.526" cy="292.245" r="41.767"/><circle cx="801.534" cy="292.245" r="41.767" style="fill:#c5c5c5;"/><circle cx="1383.94" cy="292.245" r="41.767" style="fill:#c5c5c5;"/><circle cx="357.867" cy="196.301" r="25.717"/><circle cx="936.874" cy="196.301" r="25.717" style="fill:#c5c5c5;"/><circle cx="1519.28" cy="196.301" r="25.717" style="fill:#c5c5c5;"/><g><path d="M98.217,299.151l-43,43" style="fill:none;stroke:#f00;stroke-width:6px;stroke-linecap:butt;stroke-miterlimit:10;"/><path d="M55.217,299.151l43,43" style="fill:none;stroke:#f00;stroke-width:6px;stroke-linecap:butt;stroke-miterlimit:10;"/></g><g><path d="M358.736,397.776l-43,43" style="fill:none;stroke:#f00;stroke-width:6px;stroke-linecap:butt;stroke-miterlimit:10;"/><path d="M315.736,397.776l43,43" style="fill:none;stroke:#f00;stroke-width:6px;stroke-linecap:butt;stroke-miterlimit:10;"/></g><g><path d="M397.88,218.218l-43,43" style="fill:none;stroke:#f00;stroke-width:6px;stroke-linecap:butt;stroke-miterlimit:10;"/><path d="M354.88,218.218l43,43" style="fill:none;stroke:#f00;stroke-width:6px;stroke-linecap:butt;stroke-miterlimit:10;"/></g><g><path d="M214.589,230.413l-43,43" style="fill:none;stroke:#f00;stroke-width:6px;stroke-linecap:butt;stroke-miterlimit:10;"/><path d="M171.589,230.413l43,43" style="fill:none;stroke:#f00;stroke-width:6px;stroke-linecap:butt;stroke-miterlimit:10;"/></g><g><path d="M124.239,170.795l-43,43" style="fill:none;stroke:#f00;stroke-width:6px;stroke-linecap:butt;stroke-miterlimit:10;"/><path d="M81.239,170.795l43,43" style="fill:none;stroke:#f00;stroke-width:6px;stroke-linecap:butt;stroke-miterlimit:10;"/></g><circle cx="654.282" cy="178.566" r="49.023" style="fill:#f00;fill-opacity:0.51;stroke:#000;stroke-width:4px;stroke-linecap:butt;stroke-miterlimit:10;"/><circle cx="752.574" cy="318.566" r="108.537" style="fill:#f00;fill-opacity:0.51;stroke:#000;stroke-width:4px;stroke-linecap:butt;stroke-miterlimit:10;"/><circle cx="882.386" cy="456.761" r="58.985" style="fill:#f00;fill-opacity:0.51;stroke:#000;stroke-width:4px;stroke-linecap:butt;stroke-miterlimit:10;"/><circle cx="943.019" cy="211.011" r="34.589" style="fill:#f00;fill-opacity:0.51;stroke:#000;stroke-width:4px;stroke-linecap:butt;stroke-miterlimit:10;"/><circle cx="866.501" cy="129.269" r="24.544" style="fill:#f00;fill-opacity:0.51;stroke:#000;stroke-width:4px;stroke-linecap:butt;stroke-miterlimit:10;"/><path d="M1222.28,154.374l61.679,7.856l-19.703,29.801l-61.281,30.837l19.305,-68.494Z" style="fill:#f00;fill-opacity:0.5;stroke:#000;stroke-width:4px;stroke-linecap:butt;stroke-miterlimit:10;"/><path d="M1375.44,221.974l72.436,108.94l-35.253,23.829l-65.033,8.337l-105.215,7.97l-4.248,-50.399l137.313,-98.677Z" style="fill:#f00;fill-opacity:0.5;stroke:#000;stroke-width:4px;stroke-linecap:butt;stroke-miterlimit:10;"/><path d="M1454.18,442.296l44.637,-22.89l-5.023,59.321l-48.528,22.931l8.914,-59.362Z" style="fill:#f00;fill-opacity:0.5;stroke:#000;stroke-width:4px;stroke-linecap:butt;stroke-miterlimit:10;"/><path d="M151.314,49.717c0,-5.155 -0.528,-8.838 -1.586,-11.047c-1.058,-2.209 -2.793,-3.314 -5.206,-3.314c-2.397,0 -4.125,1.105 -5.182,3.314c-1.058,2.209 -1.587,5.892 -1.587,11.047c0,5.139 0.529,8.813 1.587,11.022c1.057,2.21 2.785,3.314 5.182,3.314c2.413,0 4.148,-1.1 5.206,-3.302c1.058,-2.201 1.586,-5.879 1.586,-11.034Zm4.96,-0c-0,6.11 -0.968,10.67 -2.903,13.678c-1.935,3.009 -4.885,4.513 -8.849,4.513c-3.964,-0 -6.91,-1.497 -8.837,-4.489c-1.927,-2.993 -2.891,-7.56 -2.891,-13.702c0,-6.127 0.968,-10.694 2.903,-13.703c1.935,-3.008 4.877,-4.512 8.825,-4.512c3.964,-0 6.914,1.504 8.849,4.512c1.935,3.009 2.903,7.576 2.903,13.703Z" style="fill-rule:nonzero;"/><path d="M175.946,44.428l-0,22.798l-4.325,0l0,-22.798l-7.309,0l-0,-3.525l18.943,-0l0,3.525l-7.309,0Z" style="fill-rule:nonzero;"/><path d="M209.179,54.088c-0,-6.769 -2.233,-10.153 -6.699,-10.153c-4.449,-0 -6.674,3.384 -6.674,10.153c-0,3.338 0.564,5.864 1.692,7.58c1.128,1.716 2.789,2.573 4.982,2.573c4.466,0 6.699,-3.384 6.699,-10.153Zm-14.478,-10.929c1.88,-1.927 4.56,-2.891 8.038,-2.891c3.478,0 6.185,1.183 8.12,3.549c1.935,2.366 2.903,5.798 2.903,10.295c-0,4.481 -0.964,7.901 -2.891,10.259c-1.927,2.358 -4.724,3.537 -8.391,3.537c-3.65,-0 -6.459,-1.203 -8.425,-3.608c-1.967,-2.405 -2.911,-5.809 -2.832,-10.212c0.015,-0.705 0.015,-1.191 -0,-1.457l-0.165,-3.925c-0.078,-1.865 -0.118,-3.118 -0.118,-3.761c0,-0.642 0.016,-1.081 0.048,-1.316c0.313,-2.334 0.752,-4.074 1.316,-5.217c1.426,-2.899 3.447,-5.014 6.063,-6.346c2.006,-1.019 5.234,-1.622 9.684,-1.81c0.799,-0.031 1.473,-0.172 2.021,-0.423l1.645,3.337c-0.548,0.204 -1.222,0.345 -2.021,0.423l-5.641,0.565c-1.535,0.156 -2.883,0.571 -4.042,1.245c-3.087,1.818 -4.795,3.933 -5.124,6.346l-0.188,1.41Z" style="fill-rule:nonzero;"/><path d="M231.46,43.935c-2.194,-0 -3.855,0.854 -4.983,2.562c-1.128,1.707 -1.692,4.238 -1.692,7.591c-0,3.338 0.564,5.864 1.692,7.58c1.128,1.716 2.789,2.573 4.983,2.573c2.209,0 3.878,-0.857 5.006,-2.573c1.128,-1.716 1.692,-4.242 1.692,-7.58c0,-3.353 -0.564,-5.884 -1.692,-7.591c-1.128,-1.708 -2.797,-2.562 -5.006,-2.562Zm-0,-3.667c3.651,0 6.443,1.183 8.379,3.549c1.935,2.366 2.902,5.79 2.902,10.271c0,4.497 -0.963,7.925 -2.891,10.283c-1.927,2.358 -4.724,3.537 -8.39,3.537c-3.651,-0 -6.44,-1.179 -8.367,-3.537c-1.928,-2.358 -2.891,-5.786 -2.891,-10.283c-0,-4.481 0.963,-7.905 2.891,-10.271c1.927,-2.366 4.716,-3.549 8.367,-3.549Z" style="fill-rule:nonzero;"/><path d="M254.775,63.912l-0,13.327l-4.348,-0l-0,-36.336l4.348,-0l-0,3.361c0.72,-1.301 1.68,-2.292 2.879,-2.973c1.198,-0.682 2.581,-1.023 4.148,-1.023c3.181,0 5.676,1.23 7.486,3.69c1.81,2.46 2.714,5.868 2.714,10.224c0,4.278 -0.908,7.635 -2.726,10.071c-1.817,2.437 -4.309,3.655 -7.474,3.655c-1.598,-0 -2.997,-0.341 -4.195,-1.023c-1.199,-0.681 -2.143,-1.672 -2.832,-2.973Zm12.691,-9.824c0,-3.353 -0.528,-5.884 -1.586,-7.591c-1.058,-1.708 -2.629,-2.562 -4.712,-2.562c-2.1,-0 -3.69,0.858 -4.772,2.573c-1.081,1.716 -1.621,4.243 -1.621,7.58c-0,3.322 0.54,5.844 1.621,7.568c1.082,1.724 2.672,2.585 4.772,2.585c2.083,0 3.654,-0.854 4.712,-2.561c1.058,-1.708 1.586,-4.239 1.586,-7.592Z" style="fill-rule:nonzero;"/><path d="M578.984,32.136l4.771,0l-0,15.606l14.83,-15.606l5.57,0l-13.655,14.337l14.055,20.753l-5.735,0l-11.446,-17.58l-3.619,3.854l-0,13.726l-4.771,0l-0,-35.09Z" style="fill-rule:nonzero;"/><path d="M610.971,40.903l18.45,-0l0,26.323l-4.324,0l-0,-22.798l-9.801,0l-0,5.759c-0,2.961 -0.106,5.629 -0.317,8.002c-0.212,2.374 -0.909,4.474 -2.092,6.299c-1.183,1.826 -3.232,2.738 -6.146,2.738l-1.293,0l0,-3.525l0.823,-0c1.332,-0 2.366,-0.462 3.102,-1.387c0.737,-0.924 1.187,-2.483 1.352,-4.677c0.164,-2.194 0.246,-4.654 0.246,-7.38l0,-9.354Z" style="fill-rule:nonzero;"/><path d="M654.264,53.994l-5.476,0c-2.523,0 -4.423,0.443 -5.7,1.328c-1.277,0.885 -1.915,2.205 -1.915,3.96c-0,1.583 0.478,2.813 1.433,3.69c0.956,0.878 2.28,1.316 3.972,1.316c2.382,0 4.254,-0.826 5.618,-2.479c1.363,-1.653 2.052,-3.937 2.068,-6.851l-0,-0.964Zm4.348,-1.786l-0,15.018l-4.348,0l-0,-3.901c-0.925,1.567 -2.088,2.722 -3.49,3.466c-1.403,0.745 -3.107,1.117 -5.112,1.117c-2.68,-0 -4.818,-0.756 -6.416,-2.268c-1.599,-1.512 -2.398,-3.537 -2.398,-6.076c0,-2.93 0.983,-5.155 2.95,-6.675c1.966,-1.519 4.853,-2.279 8.661,-2.279l5.805,-0l-0,-0.682c-0.016,-2.1 -0.548,-3.623 -1.598,-4.571c-1.05,-0.948 -2.727,-1.422 -5.03,-1.422c-1.473,-0 -2.961,0.211 -4.465,0.634c-1.505,0.423 -2.97,1.042 -4.396,1.857l0,-4.324c1.599,-0.612 3.13,-1.07 4.595,-1.375c1.465,-0.306 2.887,-0.459 4.266,-0.459c2.178,0 4.039,0.322 5.582,0.964c1.543,0.642 2.793,1.606 3.749,2.891c0.595,0.783 1.018,1.751 1.269,2.902c0.251,1.152 0.376,2.88 0.376,5.183Z" style="fill-rule:nonzero;"/><path d="M687.638,65.887c-1.159,0.673 -2.354,1.179 -3.584,1.516c-1.23,0.336 -2.487,0.505 -3.772,0.505c-4.074,-0 -7.259,-1.222 -9.554,-3.667c-2.296,-2.444 -3.443,-5.828 -3.443,-10.153c-0,-4.324 1.147,-7.709 3.443,-10.153c2.295,-2.445 5.48,-3.667 9.554,-3.667c1.269,0 2.507,0.165 3.713,0.494c1.207,0.329 2.421,0.838 3.643,1.528l0,4.536c-1.144,-1.019 -2.291,-1.755 -3.443,-2.21c-1.152,-0.454 -2.456,-0.681 -3.913,-0.681c-2.711,-0 -4.795,0.877 -6.252,2.632c-1.457,1.755 -2.186,4.262 -2.186,7.521c0,3.243 0.733,5.747 2.198,7.509c1.465,1.763 3.545,2.644 6.24,2.644c1.504,0 2.851,-0.231 4.042,-0.693c1.191,-0.462 2.296,-1.179 3.314,-2.15l0,4.489Z" style="fill-rule:nonzero;"/><path d="M708.603,44.428l-0,22.798l-4.325,0l0,-22.798l-7.309,0l-0,-3.525l18.943,-0l0,3.525l-7.309,0Z" style="fill-rule:nonzero;"/><path d="M746.983,51.902l0,2.116l-18.732,-0l0,0.141c-0.125,3.588 0.561,6.165 2.057,7.732c1.496,1.567 3.608,2.35 6.334,2.35c1.379,0 2.82,-0.219 4.325,-0.658c1.504,-0.438 3.11,-1.104 4.818,-1.997l-0,4.301c-1.645,0.673 -3.232,1.179 -4.76,1.516c-1.527,0.336 -3.004,0.505 -4.43,0.505c-4.089,-0 -7.286,-1.226 -9.589,-3.678c-2.303,-2.453 -3.455,-5.833 -3.455,-10.142c-0,-4.199 1.128,-7.552 3.384,-10.059c2.257,-2.507 5.265,-3.761 9.025,-3.761c3.354,0 5.998,1.136 7.933,3.408c1.935,2.272 2.965,5.014 3.09,8.226Zm-4.324,-1.269c-0.188,-1.817 -0.85,-3.388 -1.986,-4.712c-1.136,-1.324 -2.77,-1.986 -4.901,-1.986c-2.084,-0 -3.799,0.689 -5.147,2.068c-1.347,1.379 -2.084,2.93 -2.209,4.654l14.243,-0.024Z" style="fill-rule:nonzero;"/><path d="M758.453,63.912l-0,13.327l-4.348,-0l-0,-36.336l4.348,-0l-0,3.361c0.721,-1.301 1.68,-2.292 2.879,-2.973c1.199,-0.682 2.581,-1.023 4.148,-1.023c3.181,0 5.676,1.23 7.486,3.69c1.81,2.46 2.715,5.868 2.715,10.224c-0,4.278 -0.909,7.635 -2.727,10.071c-1.817,2.437 -4.309,3.655 -7.474,3.655c-1.598,-0 -2.996,-0.341 -4.195,-1.023c-1.199,-0.681 -2.143,-1.672 -2.832,-2.973Zm12.691,-9.824c0,-3.353 -0.528,-5.884 -1.586,-7.591c-1.058,-1.708 -2.628,-2.562 -4.712,-2.562c-2.1,-0 -3.69,0.858 -4.771,2.573c-1.082,1.716 -1.622,4.243 -1.622,7.58c-0,3.322 0.54,5.844 1.622,7.568c1.081,1.724 2.671,2.585 4.771,2.585c2.084,0 3.654,-0.854 4.712,-2.561c1.058,-1.708 1.586,-4.239 1.586,-7.592Z" style="fill-rule:nonzero;"/><path d="M798.972,48.212l-11.446,19.014l-4.324,0l-0,-26.323l4.324,-0l0,19.014l11.446,-19.014l4.325,-0l-0,26.323l-4.325,0l0,-19.014Z" style="fill-rule:nonzero;"/><path d="M826.001,52.96c2.068,0.36 3.686,1.12 4.853,2.28c1.167,1.159 1.751,2.593 1.751,4.301c-0,2.601 -1.085,4.618 -3.255,6.052c-2.17,1.433 -5.253,2.15 -9.249,2.15c-1.332,0 -2.71,-0.109 -4.136,-0.329c-1.426,-0.219 -2.891,-0.548 -4.395,-0.987l-0,-4.066c1.19,0.533 2.499,0.936 3.925,1.211c1.426,0.274 2.922,0.411 4.489,0.411c2.71,-0 4.775,-0.411 6.193,-1.234c1.418,-0.823 2.127,-2.002 2.127,-3.537c-0,-1.269 -0.662,-2.335 -1.986,-3.197c-1.324,-0.861 -3.161,-1.292 -5.512,-1.292l-3.713,-0l-0,-3.385l3.878,0c2.131,0 3.76,-0.341 4.889,-1.022c1.128,-0.682 1.692,-1.5 1.692,-2.456c-0,-1.16 -0.584,-2.076 -1.751,-2.75c-1.168,-0.674 -2.832,-1.011 -4.995,-1.011c-1.175,0 -2.44,0.098 -3.795,0.294c-1.356,0.196 -2.848,0.505 -4.478,0.928l0,-3.925c1.646,-0.376 3.185,-0.658 4.619,-0.846c1.433,-0.188 2.777,-0.282 4.03,-0.282c3.291,0 5.892,0.619 7.803,1.857c1.912,1.238 2.868,2.907 2.868,5.006c-0,1.473 -0.509,2.715 -1.528,3.725c-1.018,1.011 -2.46,1.712 -4.324,2.104Z" style="fill-rule:nonzero;"/><path d="M857.119,53.994l-5.477,0c-2.522,0 -4.422,0.443 -5.699,1.328c-1.277,0.885 -1.916,2.205 -1.916,3.96c0,1.583 0.478,2.813 1.434,3.69c0.956,0.878 2.28,1.316 3.972,1.316c2.382,0 4.254,-0.826 5.617,-2.479c1.363,-1.653 2.053,-3.937 2.069,-6.851l-0,-0.964Zm4.348,-1.786l-0,15.018l-4.348,0l-0,-3.901c-0.925,1.567 -2.088,2.722 -3.491,3.466c-1.402,0.745 -3.106,1.117 -5.112,1.117c-2.679,-0 -4.818,-0.756 -6.416,-2.268c-1.598,-1.512 -2.397,-3.537 -2.397,-6.076c-0,-2.93 0.983,-5.155 2.949,-6.675c1.967,-1.519 4.854,-2.279 8.661,-2.279l5.806,-0l-0,-0.682c-0.016,-2.1 -0.549,-3.623 -1.599,-4.571c-1.049,-0.948 -2.726,-1.422 -5.029,-1.422c-1.473,-0 -2.962,0.211 -4.466,0.634c-1.504,0.423 -2.969,1.042 -4.395,1.857l0,-4.324c1.598,-0.612 3.13,-1.07 4.595,-1.375c1.465,-0.306 2.887,-0.459 4.266,-0.459c2.178,0 4.038,0.322 5.582,0.964c1.543,0.642 2.793,1.606 3.748,2.891c0.596,0.783 1.019,1.751 1.27,2.902c0.25,1.152 0.376,2.88 0.376,5.183Z" style="fill-rule:nonzero;"/><path d="M891.833,63.701l-0,10.247l-3.526,0l0,-6.722l-19.837,0l0,-26.323l4.325,-0l0,22.798l11.423,-0l-0,-22.798l4.324,-0l0,22.798l3.291,-0Z" style="fill-rule:nonzero;"/><path d="M914.889,48.212l-11.446,19.014l-4.325,0l0,-26.323l4.325,-0l-0,19.014l11.446,-19.014l4.325,-0l-0,26.323l-4.325,0l-0,-19.014Z" style="fill-rule:nonzero;"/><path d="M932.986,48.729c0,1.52 0.447,2.613 1.34,3.279c0.893,0.666 1.771,0.999 2.632,0.999l5.359,-0l0,-8.579l-5.335,0c-0.878,0 -1.763,0.337 -2.656,1.011c-0.893,0.674 -1.34,1.771 -1.34,3.29Zm-5.523,18.497l6.393,-11.258c-0.831,-0.344 -1.912,-1.026 -3.244,-2.044c-1.331,-1.019 -1.997,-2.836 -1.997,-5.453c-0,-2.632 0.862,-4.552 2.585,-5.758c1.724,-1.207 3.761,-1.81 6.111,-1.81l9.331,-0l-0,26.323l-4.325,0l0,-10.694l-4.536,0l-6.064,10.694l-4.254,0Z" style="fill-rule:nonzero;"/><path d="M1207.87,36.038l0,13.185l5.5,-0c2.194,-0 3.905,-0.58 5.135,-1.739c1.23,-1.16 1.845,-2.781 1.845,-4.865c0,-2.084 -0.611,-3.702 -1.833,-4.854c-1.222,-1.151 -2.938,-1.727 -5.147,-1.727l-5.5,-0Zm-4.747,-3.902l10.247,0c3.917,0 6.886,0.889 8.908,2.668c2.021,1.778 3.032,4.383 3.032,7.815c-0,3.462 -1.007,6.079 -3.021,7.85c-2.013,1.77 -4.986,2.655 -8.919,2.655l-5.5,0l0,14.102l-4.747,0l-0,-35.09Z" style="fill-rule:nonzero;"/><path d="M1253.8,51.902l0,2.116l-18.732,-0l0,0.141c-0.125,3.588 0.56,6.165 2.057,7.732c1.496,1.567 3.608,2.35 6.334,2.35c1.379,0 2.82,-0.219 4.324,-0.658c1.505,-0.438 3.111,-1.104 4.819,-1.997l-0,4.301c-1.646,0.673 -3.232,1.179 -4.76,1.516c-1.527,0.336 -3.004,0.505 -4.43,0.505c-4.09,-0 -7.286,-1.226 -9.589,-3.678c-2.304,-2.453 -3.455,-5.833 -3.455,-10.142c-0,-4.199 1.128,-7.552 3.384,-10.059c2.256,-2.507 5.265,-3.761 9.025,-3.761c3.353,0 5.998,1.136 7.933,3.408c1.935,2.272 2.965,5.014 3.09,8.226Zm-4.324,-1.269c-0.188,-1.817 -0.85,-3.388 -1.986,-4.712c-1.136,-1.324 -2.77,-1.986 -4.901,-1.986c-2.084,-0 -3.799,0.689 -5.147,2.068c-1.347,1.379 -2.084,2.93 -2.209,4.654l14.243,-0.024Z" style="fill-rule:nonzero;"/><path d="M1266.82,44.428l-0,22.798l-4.325,0l0,-26.323l17.675,-0l-0,3.525l-13.35,0Z" style="fill-rule:nonzero;"/><path d="M1305.79,48.212l-11.446,19.014l-4.325,0l0,-26.323l4.325,-0l-0,19.014l11.446,-19.014l4.324,-0l0,26.323l-4.324,0l-0,-19.014Z" style="fill-rule:nonzero;"/><path d="M1328.89,43.935c-2.193,-0 -3.854,0.854 -4.982,2.562c-1.128,1.707 -1.692,4.238 -1.692,7.591c-0,3.338 0.564,5.864 1.692,7.58c1.128,1.716 2.789,2.573 4.982,2.573c2.21,0 3.878,-0.857 5.007,-2.573c1.128,-1.716 1.692,-4.242 1.692,-7.58c-0,-3.353 -0.564,-5.884 -1.692,-7.591c-1.129,-1.708 -2.797,-2.562 -5.007,-2.562Zm0,-3.667c3.651,0 6.444,1.183 8.379,3.549c1.935,2.366 2.903,5.79 2.903,10.271c-0,4.497 -0.964,7.925 -2.891,10.283c-1.927,2.358 -4.724,3.537 -8.391,3.537c-3.65,-0 -6.439,-1.179 -8.367,-3.537c-1.927,-2.358 -2.891,-5.786 -2.891,-10.283c0,-4.481 0.964,-7.905 2.891,-10.271c1.928,-2.366 4.717,-3.549 8.367,-3.549Z" style="fill-rule:nonzero;"/><path d="M1363.74,55.122l-11.446,0l0,12.104l-4.324,0l-0,-26.323l4.324,-0l0,10.694l11.446,-0l0,-10.694l4.325,-0l-0,26.323l-4.325,0l0,-12.104Z" style="fill-rule:nonzero;"/><path d="M1392.72,48.212l-11.446,19.014l-4.325,0l0,-26.323l4.325,-0l-0,19.014l11.446,-19.014l4.324,-0l0,26.323l-4.324,0l-0,-19.014Z" style="fill-rule:nonzero;"/><path d="M1419.75,52.96c2.068,0.36 3.686,1.12 4.853,2.28c1.168,1.159 1.751,2.593 1.751,4.301c0,2.601 -1.085,4.618 -3.255,6.052c-2.17,1.433 -5.253,2.15 -9.248,2.15c-1.332,0 -2.711,-0.109 -4.137,-0.329c-1.426,-0.219 -2.891,-0.548 -4.395,-0.987l0,-4.066c1.191,0.533 2.499,0.936 3.925,1.211c1.426,0.274 2.922,0.411 4.489,0.411c2.711,-0 4.775,-0.411 6.193,-1.234c1.418,-0.823 2.127,-2.002 2.127,-3.537c0,-1.269 -0.662,-2.335 -1.986,-3.197c-1.324,-0.861 -3.161,-1.292 -5.511,-1.292l-3.714,-0l0,-3.385l3.878,0c2.131,0 3.761,-0.341 4.889,-1.022c1.128,-0.682 1.692,-1.5 1.692,-2.456c0,-1.16 -0.583,-2.076 -1.751,-2.75c-1.167,-0.674 -2.832,-1.011 -4.994,-1.011c-1.175,0 -2.44,0.098 -3.796,0.294c-1.355,0.196 -2.848,0.505 -4.477,0.928l-0,-3.925c1.645,-0.376 3.185,-0.658 4.618,-0.846c1.434,-0.188 2.777,-0.282 4.031,-0.282c3.29,0 5.891,0.619 7.803,1.857c1.912,1.238 2.867,2.907 2.867,5.006c0,1.473 -0.509,2.715 -1.527,3.725c-1.019,1.011 -2.46,1.712 -4.325,2.104Z" style="fill-rule:nonzero;"/><path d="M1450.87,53.994l-5.476,0c-2.523,0 -4.423,0.443 -5.7,1.328c-1.277,0.885 -1.915,2.205 -1.915,3.96c-0,1.583 0.478,2.813 1.434,3.69c0.955,0.878 2.279,1.316 3.972,1.316c2.381,0 4.254,-0.826 5.617,-2.479c1.363,-1.653 2.052,-3.937 2.068,-6.851l0,-0.964Zm4.348,-1.786l0,15.018l-4.348,0l0,-3.901c-0.924,1.567 -2.088,2.722 -3.49,3.466c-1.402,0.745 -3.106,1.117 -5.112,1.117c-2.679,-0 -4.818,-0.756 -6.416,-2.268c-1.599,-1.512 -2.398,-3.537 -2.398,-6.076c0,-2.93 0.984,-5.155 2.95,-6.675c1.966,-1.519 4.853,-2.279 8.661,-2.279l5.805,-0l0,-0.682c-0.016,-2.1 -0.548,-3.623 -1.598,-4.571c-1.05,-0.948 -2.726,-1.422 -5.03,-1.422c-1.473,-0 -2.961,0.211 -4.465,0.634c-1.505,0.423 -2.97,1.042 -4.395,1.857l-0,-4.324c1.598,-0.612 3.129,-1.07 4.594,-1.375c1.465,-0.306 2.887,-0.459 4.266,-0.459c2.178,0 4.039,0.322 5.582,0.964c1.544,0.642 2.793,1.606 3.749,2.891c0.595,0.783 1.018,1.751 1.269,2.902c0.251,1.152 0.376,2.88 0.376,5.183Z" style="fill-rule:nonzero;"/><path d="M1485.58,63.701l0,10.247l-3.525,0l-0,-6.722l-19.837,0l0,-26.323l4.325,-0l-0,22.798l11.422,-0l0,-22.798l4.325,-0l-0,22.798l3.29,-0Z" style="fill-rule:nonzero;"/><path d="M1508.64,48.212l-11.446,19.014l-4.325,0l-0,-26.323l4.325,-0l-0,19.014l11.446,-19.014l4.324,-0l0,26.323l-4.324,0l-0,-19.014Z" style="fill-rule:nonzero;"/><path d="M1526.74,48.729c-0,1.52 0.446,2.613 1.34,3.279c0.893,0.666 1.77,0.999 2.632,0.999l5.359,-0l-0,-8.579l-5.336,0c-0.877,0 -1.762,0.337 -2.655,1.011c-0.894,0.674 -1.34,1.771 -1.34,3.29Zm-5.523,18.497l6.392,-11.258c-0.83,-0.344 -1.911,-1.026 -3.243,-2.044c-1.332,-1.019 -1.998,-2.836 -1.998,-5.453c0,-2.632 0.862,-4.552 2.586,-5.758c1.723,-1.207 3.76,-1.81 6.11,-1.81l9.331,-0l0,26.323l-4.324,0l-0,-10.694l-4.537,0l-6.063,10.694l-4.254,0Z" style="fill-rule:nonzero;"/></g></svg>